<svg width="100" height="37" viewBox="0 0 100 37" fill="none" xmlns="http://www.w3.org/2000/svg">
<g filter="url(#filter0_d)">
<rect x="4.74902" width="91" height="29" rx="5" fill="#303045"/>
<divath d="M26.9712 17.5729C25.6288 17.5729 24.3486 17.2804 23.1679 16.7033C22.9828 16.6147 22.7681 16.6007 22.5721 16.6676C22.3761 16.736 22.2159 16.8791 22.1257 17.0642L21.5657 18.2231C19.8857 17.2587 18.4919 15.8633 17.5259 14.1833L18.6864 13.6233C18.873 13.5331 19.0146 13.3729 19.083 13.1769C19.1499 12.9809 19.1375 12.7662 19.0472 12.5811C18.4686 11.402 18.1761 10.1218 18.1761 8.77778C18.1761 8.34844 17.8277 8 17.3984 8H14.5268C14.0975 8 13.749 8.34844 13.749 8.77778C13.749 16.0687 19.6804 22 26.9712 22C27.4006 22 27.749 21.6516 27.749 21.2222V18.3507C27.749 17.9213 27.4006 17.5729 26.9712 17.5729Z" fill="#FAFAFA"/>
<divath d="M43.78 12.496C43.468 12.16 43.164 11.936 42.868 11.824C42.58 11.712 42.288 11.656 41.992 11.656C41.552 11.656 41.152 11.736 40.792 11.896C40.44 12.048 40.136 12.264 39.88 12.544C39.624 12.816 39.424 13.136 39.28 13.504C39.144 13.872 39.076 14.268 39.076 14.692C39.076 15.148 39.144 15.568 39.28 15.952C39.424 16.336 39.624 16.668 39.88 16.948C40.136 17.228 40.44 17.448 40.792 17.608C41.152 17.768 41.552 17.848 41.992 17.848C42.336 17.848 42.668 17.768 42.988 17.608C43.316 17.44 43.62 17.176 43.9 16.816L45.148 17.704C44.764 18.232 44.296 18.616 43.744 18.856C43.192 19.096 42.604 19.216 41.98 19.216C41.324 19.216 40.72 19.112 40.168 18.904C39.624 18.688 39.152 18.388 38.752 18.004C38.36 17.612 38.052 17.144 37.828 16.6C37.604 16.056 37.492 15.452 37.492 14.788C37.492 14.108 37.604 13.492 37.828 12.94C38.052 12.38 38.36 11.904 38.752 11.512C39.152 11.12 39.624 10.82 40.168 10.612C40.72 10.396 41.324 10.288 41.98 10.288C42.556 10.288 43.088 10.392 43.576 10.6C44.072 10.8 44.532 11.144 44.956 11.632L43.78 12.496ZM49.6308 18.208H49.5948C49.3868 18.536 49.1228 18.776 48.8028 18.928C48.4828 19.072 48.1308 19.144 47.7468 19.144C47.4828 19.144 47.2228 19.108 46.9668 19.036C46.7188 18.964 46.4948 18.856 46.2948 18.712C46.1028 18.568 45.9468 18.388 45.8268 18.172C45.7068 17.956 45.6468 17.704 45.6468 17.416C45.6468 17.104 45.7028 16.84 45.8148 16.624C45.9268 16.4 46.0748 16.216 46.2588 16.072C46.4508 15.92 46.6708 15.8 46.9188 15.712C47.1668 15.624 47.4228 15.56 47.6868 15.52C47.9588 15.472 48.2308 15.444 48.5028 15.436C48.7748 15.42 49.0308 15.412 49.2708 15.412H49.6308V15.256C49.6308 14.896 49.5068 14.628 49.2588 14.452C49.0108 14.268 48.6948 14.176 48.3108 14.176C48.0068 14.176 47.7228 14.232 47.4588 14.344C47.1948 14.448 46.9668 14.592 46.7748 14.776L46.0188 14.02C46.3388 13.692 46.7108 13.456 47.1348 13.312C47.5668 13.168 48.0108 13.096 48.4668 13.096C48.8748 13.096 49.2188 13.144 49.4988 13.24C49.7788 13.328 50.0108 13.444 50.1948 13.588C50.3788 13.732 50.5188 13.9 50.6148 14.092C50.7188 14.276 50.7908 14.464 50.8308 14.656C50.8788 14.848 50.9068 15.036 50.9148 15.22C50.9228 15.396 50.9268 15.552 50.9268 15.688V19H49.6308V18.208ZM49.5468 16.42H49.2468C49.0468 16.42 48.8228 16.428 48.5748 16.444C48.3268 16.46 48.0908 16.5 47.8668 16.564C47.6508 16.62 47.4668 16.708 47.3148 16.828C47.1628 16.94 47.0868 17.1 47.0868 17.308C47.0868 17.444 47.1148 17.56 47.1708 17.656C47.2348 17.744 47.3148 17.82 47.4108 17.884C47.5068 17.948 47.6148 17.996 47.7348 18.028C47.8548 18.052 47.9748 18.064 48.0948 18.064C48.5908 18.064 48.9548 17.948 49.1868 17.716C49.4268 17.476 49.5468 17.152 49.5468 16.744V16.42ZM52.5002 9.928H53.9402V19H52.5002V9.928ZM55.6291 9.928H57.0691V19H55.6291V9.928ZM62.273 13.24H63.641V14.164H63.665C63.801 13.876 64.009 13.628 64.289 13.42C64.569 13.204 64.949 13.096 65.429 13.096C65.813 13.096 66.137 13.16 66.401 13.288C66.673 13.416 66.893 13.584 67.061 13.792C67.229 14 67.349 14.24 67.421 14.512C67.493 14.784 67.529 15.068 67.529 15.364V19H66.089V16.084C66.089 15.924 66.081 15.748 66.065 15.556C66.049 15.356 66.005 15.172 65.933 15.004C65.869 14.828 65.765 14.684 65.621 14.572C65.477 14.452 65.281 14.392 65.033 14.392C64.793 14.392 64.589 14.432 64.421 14.512C64.261 14.592 64.125 14.7 64.013 14.836C63.909 14.972 63.833 15.128 63.785 15.304C63.737 15.48 63.713 15.664 63.713 15.856V19H62.273V13.24ZM68.8757 16.12C68.8757 15.664 68.9557 15.252 69.1157 14.884C69.2837 14.508 69.5077 14.188 69.7877 13.924C70.0677 13.66 70.3997 13.456 70.7837 13.312C71.1677 13.168 71.5757 13.096 72.0077 13.096C72.4397 13.096 72.8477 13.168 73.2317 13.312C73.6157 13.456 73.9477 13.66 74.2277 13.924C74.5077 14.188 74.7277 14.508 74.8877 14.884C75.0557 15.252 75.1397 15.664 75.1397 16.12C75.1397 16.576 75.0557 16.992 74.8877 17.368C74.7277 17.736 74.5077 18.052 74.2277 18.316C73.9477 18.58 73.6157 18.784 73.2317 18.928C72.8477 19.072 72.4397 19.144 72.0077 19.144C71.5757 19.144 71.1677 19.072 70.7837 18.928C70.3997 18.784 70.0677 18.58 69.7877 18.316C69.5077 18.052 69.2837 17.736 69.1157 17.368C68.9557 16.992 68.8757 16.576 68.8757 16.12ZM70.3157 16.12C70.3157 16.344 70.3517 16.56 70.4237 16.768C70.5037 16.976 70.6157 17.16 70.7597 17.32C70.9117 17.48 71.0917 17.608 71.2997 17.704C71.5077 17.8 71.7437 17.848 72.0077 17.848C72.2717 17.848 72.5077 17.8 72.7157 17.704C72.9237 17.608 73.0997 17.48 73.2437 17.32C73.3957 17.16 73.5077 16.976 73.5797 16.768C73.6597 16.56 73.6997 16.344 73.6997 16.12C73.6997 15.896 73.6597 15.68 73.5797 15.472C73.5077 15.264 73.3957 15.08 73.2437 14.92C73.0997 14.76 72.9237 14.632 72.7157 14.536C72.5077 14.44 72.2717 14.392 72.0077 14.392C71.7437 14.392 71.5077 14.44 71.2997 14.536C71.0917 14.632 70.9117 14.76 70.7597 14.92C70.6157 15.08 70.5037 15.264 70.4237 15.472C70.3517 15.68 70.3157 15.896 70.3157 16.12ZM75.7079 13.24H77.2679L78.5159 17.272H78.5399L79.7039 13.24H81.2639L82.5119 17.272H82.5359L83.7359 13.24H85.1879L83.2319 19H81.8039L80.4359 15.064H80.4119L79.1999 19H77.7119L75.7079 13.24Z" fill="#F5F7FF"/>
</g>
<defs>
<filter id="filter0_d" x="0.749023" y="0" width="99" height="37" filterUnits="userSpaceOnUse" color-interpolation-filters="sRGB">
<feFlood flood-opacity="0" result="BackgroundImageFix"/>
<feColorMatrix in="SourceAlpha" type="matrix" values="0 0 0 0 0 0 0 0 0 0 0 0 0 0 0 0 0 0 127 0"/>
<feOffset dy="4"/>
<feGaussianBlur stdDeviation="2"/>
<feColorMatrix type="matrix" values="0 0 0 0 0.188235 0 0 0 0 0.188235 0 0 0 0 0.270588 0 0 0 0.15 0"/>
<feBlend mode="normal" in2="BackgroundImageFix" result="effect1_dropShadow"/>
<feBlend mode="normal" in="SourceGraphic" in2="effect1_dropShadow" result="shape"/>
</filter>
</defs>
</svg>
