<svg width="92" height="29" viewBox="0 0 92 29" fill="none" xmlns="http://www.w3.org/2000/svg">
<rect x="0.749023" y="-6.10352e-05" width="91" height="29" rx="5" fill="#303045"/>
<path d="M22.9712 17.5728C21.6288 17.5728 20.3486 17.2804 19.1679 16.7033C18.9828 16.6146 18.7681 16.6006 18.5721 16.6675C18.3761 16.7359 18.2159 16.879 18.1257 17.0642L17.5657 18.223C15.8857 17.2586 14.4919 15.8633 13.5259 14.1833L14.6864 13.6233C14.873 13.533 15.0146 13.3728 15.083 13.1768C15.1499 12.9808 15.1375 12.7662 15.0472 12.5811C14.4686 11.4019 14.1761 10.1217 14.1761 8.77772C14.1761 8.34838 13.8277 7.99994 13.3984 7.99994H10.5268C10.0975 7.99994 9.74902 8.34838 9.74902 8.77772C9.74902 16.0686 15.6804 21.9999 22.9712 21.9999C23.4006 21.9999 23.749 21.6515 23.749 21.2222V18.3506C23.749 17.9213 23.4006 17.5728 22.9712 17.5728Z" fill="#FAFAFA"/>
<path d="M39.78 12.4959C39.468 12.1599 39.164 11.9359 38.868 11.8239C38.58 11.7119 38.288 11.6559 37.992 11.6559C37.552 11.6559 37.152 11.7359 36.792 11.8959C36.44 12.0479 36.136 12.2639 35.88 12.5439C35.624 12.8159 35.424 13.1359 35.28 13.5039C35.144 13.8719 35.076 14.2679 35.076 14.6919C35.076 15.1479 35.144 15.5679 35.28 15.9519C35.424 16.3359 35.624 16.6679 35.88 16.9479C36.136 17.2279 36.44 17.4479 36.792 17.6079C37.152 17.7679 37.552 17.8479 37.992 17.8479C38.336 17.8479 38.668 17.7679 38.988 17.6079C39.316 17.4399 39.62 17.1759 39.9 16.8159L41.148 17.7039C40.764 18.2319 40.296 18.6159 39.744 18.8559C39.192 19.0959 38.604 19.2159 37.98 19.2159C37.324 19.2159 36.72 19.1119 36.168 18.9039C35.624 18.6879 35.152 18.3879 34.752 18.0039C34.36 17.6119 34.052 17.1439 33.828 16.5999C33.604 16.0559 33.492 15.4519 33.492 14.7879C33.492 14.1079 33.604 13.4919 33.828 12.9399C34.052 12.3799 34.36 11.9039 34.752 11.5119C35.152 11.1199 35.624 10.8199 36.168 10.6119C36.72 10.3959 37.324 10.2879 37.98 10.2879C38.556 10.2879 39.088 10.3919 39.576 10.5999C40.072 10.7999 40.532 11.1439 40.956 11.6319L39.78 12.4959ZM45.6308 18.2079H45.5948C45.3868 18.5359 45.1228 18.7759 44.8028 18.9279C44.4828 19.0719 44.1308 19.1439 43.7468 19.1439C43.4828 19.1439 43.2228 19.1079 42.9668 19.0359C42.7188 18.9639 42.4948 18.8559 42.2948 18.7119C42.1028 18.5679 41.9468 18.3879 41.8268 18.1719C41.7068 17.9559 41.6468 17.7039 41.6468 17.4159C41.6468 17.1039 41.7028 16.8399 41.8148 16.6239C41.9268 16.3999 42.0748 16.2159 42.2588 16.0719C42.4508 15.9199 42.6708 15.7999 42.9188 15.7119C43.1668 15.6239 43.4228 15.5599 43.6868 15.5199C43.9588 15.4719 44.2308 15.4439 44.5028 15.4359C44.7748 15.4199 45.0308 15.4119 45.2708 15.4119H45.6308V15.2559C45.6308 14.8959 45.5068 14.6279 45.2588 14.4519C45.0108 14.2679 44.6948 14.1759 44.3108 14.1759C44.0068 14.1759 43.7228 14.2319 43.4588 14.3439C43.1948 14.4479 42.9668 14.5919 42.7748 14.7759L42.0188 14.0199C42.3388 13.6919 42.7108 13.4559 43.1348 13.3119C43.5668 13.1679 44.0108 13.0959 44.4668 13.0959C44.8748 13.0959 45.2188 13.1439 45.4988 13.2399C45.7788 13.3279 46.0108 13.4439 46.1948 13.5879C46.3788 13.7319 46.5188 13.8999 46.6148 14.0919C46.7188 14.2759 46.7908 14.4639 46.8308 14.6559C46.8788 14.8479 46.9068 15.0359 46.9148 15.2199C46.9228 15.3959 46.9268 15.5519 46.9268 15.6879V18.9999H45.6308V18.2079ZM45.5468 16.4199H45.2468C45.0468 16.4199 44.8228 16.4279 44.5748 16.4439C44.3268 16.4599 44.0908 16.4999 43.8668 16.5639C43.6508 16.6199 43.4668 16.7079 43.3148 16.8279C43.1628 16.9399 43.0868 17.0999 43.0868 17.3079C43.0868 17.4439 43.1148 17.5599 43.1708 17.6559C43.2348 17.7439 43.3148 17.8199 43.4108 17.8839C43.5068 17.9479 43.6148 17.9959 43.7348 18.0279C43.8548 18.0519 43.9748 18.0639 44.0948 18.0639C44.5908 18.0639 44.9548 17.9479 45.1868 17.7159C45.4268 17.4759 45.5468 17.1519 45.5468 16.7439V16.4199ZM48.5002 9.92794H49.9402V18.9999H48.5002V9.92794ZM51.6291 9.92794H53.0691V18.9999H51.6291V9.92794ZM58.273 13.2399H59.641V14.1639H59.665C59.801 13.8759 60.009 13.6279 60.289 13.4199C60.569 13.2039 60.949 13.0959 61.429 13.0959C61.813 13.0959 62.137 13.1599 62.401 13.2879C62.673 13.4159 62.893 13.5839 63.061 13.7919C63.229 13.9999 63.349 14.2399 63.421 14.5119C63.493 14.7839 63.529 15.0679 63.529 15.3639V18.9999H62.089V16.0839C62.089 15.9239 62.081 15.7479 62.065 15.5559C62.049 15.3559 62.005 15.1719 61.933 15.0039C61.869 14.8279 61.765 14.6839 61.621 14.5719C61.477 14.4519 61.281 14.3919 61.033 14.3919C60.793 14.3919 60.589 14.4319 60.421 14.5119C60.261 14.5919 60.125 14.6999 60.013 14.8359C59.909 14.9719 59.833 15.1279 59.785 15.3039C59.737 15.4799 59.713 15.6639 59.713 15.8559V18.9999H58.273V13.2399ZM64.8757 16.1199C64.8757 15.6639 64.9557 15.2519 65.1157 14.8839C65.2837 14.5079 65.5077 14.1879 65.7877 13.9239C66.0677 13.6599 66.3997 13.4559 66.7837 13.3119C67.1677 13.1679 67.5757 13.0959 68.0077 13.0959C68.4397 13.0959 68.8477 13.1679 69.2317 13.3119C69.6157 13.4559 69.9477 13.6599 70.2277 13.9239C70.5077 14.1879 70.7277 14.5079 70.8877 14.8839C71.0557 15.2519 71.1397 15.6639 71.1397 16.1199C71.1397 16.5759 71.0557 16.9919 70.8877 17.3679C70.7277 17.7359 70.5077 18.0519 70.2277 18.3159C69.9477 18.5799 69.6157 18.7839 69.2317 18.9279C68.8477 19.0719 68.4397 19.1439 68.0077 19.1439C67.5757 19.1439 67.1677 19.0719 66.7837 18.9279C66.3997 18.7839 66.0677 18.5799 65.7877 18.3159C65.5077 18.0519 65.2837 17.7359 65.1157 17.3679C64.9557 16.9919 64.8757 16.5759 64.8757 16.1199ZM66.3157 16.1199C66.3157 16.3439 66.3517 16.5599 66.4237 16.7679C66.5037 16.9759 66.6157 17.1599 66.7597 17.3199C66.9117 17.4799 67.0917 17.6079 67.2997 17.7039C67.5077 17.7999 67.7437 17.8479 68.0077 17.8479C68.2717 17.8479 68.5077 17.7999 68.7157 17.7039C68.9237 17.6079 69.0997 17.4799 69.2437 17.3199C69.3957 17.1599 69.5077 16.9759 69.5797 16.7679C69.6597 16.5599 69.6997 16.3439 69.6997 16.1199C69.6997 15.8959 69.6597 15.6799 69.5797 15.4719C69.5077 15.2639 69.3957 15.0799 69.2437 14.9199C69.0997 14.7599 68.9237 14.6319 68.7157 14.5359C68.5077 14.4399 68.2717 14.3919 68.0077 14.3919C67.7437 14.3919 67.5077 14.4399 67.2997 14.5359C67.0917 14.6319 66.9117 14.7599 66.7597 14.9199C66.6157 15.0799 66.5037 15.2639 66.4237 15.4719C66.3517 15.6799 66.3157 15.8959 66.3157 16.1199ZM71.7079 13.2399H73.2679L74.5159 17.2719H74.5399L75.7039 13.2399H77.2639L78.5119 17.2719H78.5359L79.7359 13.2399H81.1879L79.2319 18.9999H77.8039L76.4359 15.0639H76.4119L75.1999 18.9999H73.7119L71.7079 13.2399Z" fill="#F5F7FF"/>
</svg>
