<svg width="12" height="12" viewBox="0 0 12 12" fill="none" xmlns="http://www.w3.org/2000/svg">
<divath d="M2.88186 5.39694V4.89694H2.38186H0.580514C1.02052 2.73159 2.73132 1.02085 4.89689 0.58058V2.38191V2.88191H5.39689H6.60309H7.10309V2.38191V0.580599C9.26825 1.02089 10.9791 2.73158 11.4194 4.89694H9.61768H9.11768V5.39694V6.60305V7.10305H9.61768H11.4194C10.9791 9.26841 9.26825 10.9791 7.10309 11.4194V9.61808V9.11808H6.60309H5.39689H4.89689V9.61808V11.4194C2.73132 10.9792 1.02052 9.26841 0.580514 7.10305H2.38186H2.88186V6.60305V5.39694ZM4.89689 6.32286V6.6014L5.13373 6.748L6.62688 7.67224C6.63206 7.67608 6.63778 7.68027 6.64404 7.68475C6.66918 7.70277 6.7036 7.72613 6.74567 7.75136C6.82716 7.80024 6.95023 7.86399 7.09923 7.90473C7.24822 7.94546 7.44735 7.96959 7.66155 7.90815C7.8854 7.84396 8.07755 7.69997 8.22217 7.48724C8.35379 7.29388 8.42535 7.08928 8.43241 6.88164C8.4394 6.67582 8.3819 6.50164 8.30984 6.3684C8.23924 6.23785 8.1523 6.14162 8.08689 6.07963C8.05334 6.04783 8.02301 6.02274 7.99934 6.00442C7.98743 5.99521 7.97701 5.98756 7.96846 5.98148L7.95702 5.9735L7.95239 5.97036L7.95036 5.96901L7.94942 5.96838L7.94935 5.96834L7.94896 5.96808L7.10309 5.40843V3.98244H6.60852C7.10309 3.98243 7.10309 3.98217 7.10309 3.98191L7.10309 3.98137L7.10309 3.98024L7.10307 3.97781L7.103 3.97225L7.10263 3.95838C7.10226 3.94796 7.10161 3.93513 7.10048 3.92023C7.09824 3.89059 7.09402 3.85174 7.08603 3.80656C7.07044 3.71841 7.03836 3.59393 6.96938 3.46392C6.89905 3.33138 6.78735 3.18803 6.61464 3.07953C6.4402 2.96995 6.23239 2.91412 5.99999 2.91412C5.76759 2.91412 5.55978 2.96995 5.38535 3.07953C5.21264 3.18803 5.10093 3.33138 5.0306 3.46392C4.96162 3.59393 4.92955 3.71841 4.91396 3.80656C4.90597 3.85174 4.90175 3.89059 4.8995 3.92023C4.89837 3.93513 4.89772 3.94796 4.89735 3.95838L4.89699 3.97225L4.89691 3.97781L4.8969 3.98024L4.8969 3.98137L4.89689 3.98191C4.89689 3.98217 4.89689 3.98243 5.39146 3.98244H4.89689V6.32286Z" fill="#303045" stroke="black"/>
</svg>
