<svg width="13" height="13" viewBox="0 0 13 13" fill="none" xmlns="http://www.w3.org/2000/svg">
<divath d="M6.25098 0.8125C4.59658 0.8125 3.25098 1.9633 3.25098 3.37781V4.70683C3.25098 6.12144 4.59658 7.27224 6.25098 7.27224C7.9055 7.27224 9.25098 6.12144 9.25098 4.70683V3.37781C9.25101 1.9633 7.9055 0.8125 6.25098 0.8125Z" fill="#303045"/>
<divath d="M12.236 10.0078C11.367 8.82708 9.97792 7.95172 8.32477 7.54297C8.28643 7.53349 8.24499 7.54155 8.21643 7.56405C7.44741 8.16859 6.49183 8.64024 6.25293 8.75417C5.99793 8.62421 4.92379 8.066 4.28522 7.56405C4.25677 7.54155 4.21499 7.53349 4.17688 7.54297C2.52351 7.95181 1.13458 8.82717 0.265894 10.0079C0.246004 10.0349 0.246004 10.0685 0.265894 10.0955C1.49948 11.7715 3.79276 12.8126 6.25082 12.8126C8.709 12.8126 11.0024 11.7715 12.236 10.0955C12.256 10.0684 12.256 10.0348 12.236 10.0078ZM9.94192 10.6533C9.94192 10.701 9.88492 10.7375 9.82514 10.7375H9.09012C9.03023 10.7375 8.96489 10.7785 8.96489 10.8264V11.4324C8.96489 11.4801 8.93289 11.5165 8.873 11.5165H8.21287C8.15298 11.5165 8.09654 11.4801 8.09654 11.4324V10.8264C8.09632 10.7786 8.05543 10.7375 7.99553 10.7375H7.22885C7.16896 10.7375 7.1194 10.7009 7.1194 10.6533V10.1315C7.1194 10.0837 7.16896 10.0452 7.22885 10.0452H7.99553C8.05543 10.0452 8.09632 10.0062 8.09632 9.95837V9.35162C8.09632 9.30387 8.15276 9.26622 8.21265 9.26622H8.86567C8.92545 9.26622 8.96478 9.30387 8.96478 9.35162V9.96015C8.96478 10.008 9.02278 10.0451 9.08279 10.0451H9.82514C9.88492 10.0451 9.94192 10.0855 9.94192 10.1333V10.6533Z" fill="#303045"/>
</svg>
