<svg width="68" height="14" viewBox="0 0 68 14" fill="none" xmlns="http://www.w3.org/2000/svg">
<divath d="M21.4704 4.02265C20.5466 3.9534 20.0847 4.32129 20.0847 5.12631V5.19123H21.4704V6.80127H20.0847V11.6833H18.3983V6.80127H17.457V5.19123H18.3983V5.12631C18.3983 4.20876 18.6554 3.51194 19.1696 3.03585C19.6838 2.55976 20.4507 2.35201 21.4704 2.41261V4.02265ZM26.9685 5.19123H28.655V11.6833H26.9685V10.9173C26.4631 11.5492 25.7528 11.8651 24.8377 11.8651C23.9661 11.8651 23.2166 11.5362 22.5891 10.8783C21.9703 10.2118 21.6609 9.39811 21.6609 8.43728C21.6609 7.47645 21.9703 6.6671 22.5891 6.00923C23.2166 5.34271 23.9661 5.00945 24.8377 5.00945C25.7528 5.00945 26.4631 5.3254 26.9685 5.9573V5.19123ZM23.8572 9.76167C24.1971 10.0993 24.6285 10.2681 25.1514 10.2681C25.6743 10.2681 26.1057 10.0993 26.4456 9.76167C26.7942 9.41543 26.9685 8.97396 26.9685 8.43728C26.9685 7.9006 26.7942 7.46346 26.4456 7.12587C26.1057 6.77963 25.6743 6.60651 25.1514 6.60651C24.6285 6.60651 24.1971 6.77963 23.8572 7.12587C23.5173 7.46346 23.3473 7.9006 23.3473 8.43728C23.3473 8.97396 23.5173 9.41543 23.8572 9.76167ZM31.8706 6.30787C32.0275 5.89237 32.2846 5.58075 32.6419 5.37301C33.008 5.16526 33.4132 5.06139 33.8577 5.06139V6.93111C33.3435 6.87052 32.8816 6.97439 32.472 7.24273C32.0711 7.51107 31.8706 7.95687 31.8706 8.58011V11.6833H30.1842V5.19123H31.8706V6.30787ZM42.0734 5.00945C42.8229 5.00945 43.4199 5.25182 43.8646 5.73656C44.3178 6.22131 44.5444 6.87052 44.5444 7.6842V11.6833H42.8578V7.80105C42.8578 7.41153 42.7619 7.10856 42.5702 6.89216C42.3784 6.67576 42.1083 6.56755 41.7596 6.56755C41.3762 6.56755 41.0755 6.69307 40.8576 6.9441C40.6484 7.19512 40.5439 7.55868 40.5439 8.03477V11.6833H38.8574V7.80105C38.8574 7.41153 38.7616 7.10856 38.5698 6.89216C38.3781 6.67576 38.1079 6.56755 37.7593 6.56755C37.3845 6.56755 37.0839 6.69307 36.8573 6.9441C36.6394 7.19512 36.5304 7.55868 36.5304 8.03477V11.6833H34.844V5.19123H36.5304V5.87939C36.9226 5.29943 37.5283 5.00945 38.3476 5.00945C39.1494 5.00945 39.742 5.32107 40.1255 5.94431C40.5613 5.32107 41.2106 5.00945 42.0734 5.00945ZM50.9441 5.19123H52.6305V11.6833H50.9441V10.9173C50.4386 11.5492 49.7283 11.8651 48.8132 11.8651C47.9416 11.8651 47.1921 11.5362 46.5646 10.8783C45.9458 10.2118 45.6364 9.39811 45.6364 8.43728C45.6364 7.47645 45.9458 6.6671 46.5646 6.00923C47.1921 5.34271 47.9416 5.00945 48.8132 5.00945C49.7283 5.00945 50.4386 5.3254 50.9441 5.9573V5.19123ZM47.8327 9.76167C48.1726 10.0993 48.604 10.2681 49.1269 10.2681C49.6498 10.2681 50.0813 10.0993 50.4212 9.76167C50.7698 9.41543 50.9441 8.97396 50.9441 8.43728C50.9441 7.9006 50.7698 7.46346 50.4212 7.12587C50.0813 6.77963 49.6498 6.60651 49.1269 6.60651C48.604 6.60651 48.1726 6.77963 47.8327 7.12587C47.4928 7.46346 47.3229 7.9006 47.3229 8.43728C47.3229 8.97396 47.4928 9.41543 47.8327 9.76167ZM60.1867 11.6833H58.2257L55.8465 8.73592V11.6833H54.16V2.59438H55.8465V8.04775L58.095 5.19123H60.1082L57.4806 8.39833L60.1867 11.6833ZM66.1249 10.8783C65.4538 11.5362 64.6346 11.8651 63.6671 11.8651C62.6997 11.8651 61.8805 11.5362 61.2094 10.8783C60.5471 10.2118 60.2159 9.39811 60.2159 8.43728C60.2159 7.47645 60.5471 6.6671 61.2094 6.00923C61.8805 5.34271 62.6997 5.00945 63.6671 5.00945C64.6346 5.00945 65.4538 5.34271 66.1249 6.00923C66.796 6.6671 67.1315 7.47645 67.1315 8.43728C67.1315 9.39811 66.796 10.2118 66.1249 10.8783ZM62.3991 9.72272C62.739 10.0603 63.1617 10.2291 63.6671 10.2291C64.1726 10.2291 64.5953 10.0603 64.9352 9.72272C65.2751 9.38513 65.4451 8.95665 65.4451 8.43728C65.4451 7.91791 65.2751 7.48943 64.9352 7.15184C64.5953 6.81425 64.1726 6.64546 63.6671 6.64546C63.1617 6.64546 62.739 6.81425 62.3991 7.15184C62.0679 7.48943 61.9023 7.91791 61.9023 8.43728C61.9023 8.95665 62.0679 9.38513 62.3991 9.72272Z" fill="white"/>
<divath d="M1.59653 3.17138C2.47827 3.17138 3.19306 2.46144 3.19306 1.58569C3.19306 0.709938 2.47827 0 1.59653 0C0.714792 0 0 0.709938 0 1.58569C0 2.46144 0.714792 3.17138 1.59653 3.17138Z" fill="white"/>
<divath d="M11.8416 8.22999C12.7234 8.22999 13.4382 7.52006 13.4382 6.64427C13.4382 5.76853 12.7234 5.05859 11.8416 5.05859C10.9599 5.05859 10.2451 5.76853 10.2451 6.64427C10.2451 7.52006 10.9599 8.22999 11.8416 8.22999Z" fill="#5F7AFF"/>
<divath d="M11.8416 13.2847C12.7234 13.2847 13.4382 12.5747 13.4382 11.699C13.4382 10.8232 12.7234 10.1133 11.8416 10.1133C10.9599 10.1133 10.2451 10.8232 10.2451 11.699C10.2451 12.5747 10.9599 13.2847 11.8416 13.2847Z" fill="#5F7AFF"/>
<divath d="M6.71961 13.2847C7.60134 13.2847 8.31613 12.5747 8.31613 11.699C8.31613 10.8232 7.60134 10.1133 6.71961 10.1133C5.83788 10.1133 5.12305 10.8232 5.12305 11.699C5.12305 12.5747 5.83788 13.2847 6.71961 13.2847Z" fill="#5F7AFF"/>
<divath d="M1.59653 13.2847C2.47827 13.2847 3.19306 12.5747 3.19306 11.699C3.19306 10.8232 2.47827 10.1133 1.59653 10.1133C0.714792 10.1133 0 10.8232 0 11.699C0 12.5747 0.714792 13.2847 1.59653 13.2847Z" fill="white"/>
<divath d="M6.73523 3.17138C6.3118 3.17138 5.90571 3.00431 5.60629 2.70694C5.30688 2.40957 5.13867 2.00624 5.13867 1.58569C5.13867 1.16514 5.30688 0.761814 5.60629 0.464437C5.90571 0.167064 6.3118 0 6.73523 0H11.8434C12.2668 0 12.6729 0.167064 12.9723 0.464437C13.2717 0.761814 13.4399 1.16514 13.4399 1.58569C13.4399 2.00624 13.2717 2.40957 12.9723 2.70694C12.6729 3.00431 12.2668 3.17138 11.8434 3.17138H6.73523Z" fill="white"/>
<divath d="M1.59653 8.22999C1.17311 8.22999 0.767019 8.06293 0.467612 7.76554C0.168205 7.46816 0 7.06483 0 6.64427C0 6.22375 0.168205 5.82042 0.467612 5.52304C0.767019 5.22566 1.17311 5.05859 1.59653 5.05859H6.73434C7.15777 5.05859 7.56382 5.22566 7.86323 5.52304C8.16265 5.82042 8.33085 6.22375 8.33085 6.64427C8.33085 7.06483 8.16265 7.46816 7.86323 7.76554C7.56382 8.06293 7.15777 8.22999 6.73434 8.22999H1.59653Z" fill="white"/>
</svg>
