<svg width="12" height="13" viewBox="0 0 12 13" fill="none" xmlns="http://www.w3.org/2000/svg">
<path d="M0 12.2852H2.18182V5.08516H0V12.2852ZM12 5.68516C12 5.02516 11.5091 4.48516 10.9091 4.48516H7.46727L7.98546 1.74316L8.00182 1.55116C8.00182 1.30516 7.90909 1.07716 7.76182 0.915156L7.18364 0.285156L3.59455 4.23916C3.39273 4.45516 3.27273 4.75516 3.27273 5.08516V11.0852C3.27273 11.7452 3.76364 12.2852 4.36364 12.2852H9.27273C9.72546 12.2852 10.1127 11.9852 10.2764 11.5532L11.9236 7.32316C11.9727 7.18516 12 7.04116 12 6.88516V5.68516Z" fill="#303045"/>
</svg>
