<svg width="8" height="13" viewBox="0 0 8 13" fill="none" xmlns="http://www.w3.org/2000/svg">
<path d="M4.00001 0.332031C1.79444 0.332031 0 2.12648 0 4.33204C0 4.99415 0.165539 5.65063 0.480234 6.23291L3.78126 12.2031C3.82521 12.2827 3.90895 12.332 4.00001 12.332C4.09106 12.332 4.1748 12.2827 4.21875 12.2031L7.521 6.23095C7.83447 5.65063 8.00001 4.99413 8.00001 4.33202C8.00001 2.12648 6.20557 0.332031 4.00001 0.332031ZM4.00001 6.33203C2.89723 6.33203 2.00001 5.43482 2.00001 4.33204C2.00001 3.22926 2.89723 2.33205 4.00001 2.33205C5.10279 2.33205 6 3.22926 6 4.33204C6 5.43482 5.10279 6.33203 4.00001 6.33203Z" fill="#303045"/>
</svg>
