<svg width="68" height="14" viewBox="0 0 68 14" fill="none" xmlns="http://www.w3.org/2000/svg">
<path d="M21.4703 4.02375C20.5464 3.9545 20.0845 4.32238 20.0845 5.12741V5.19233H21.4703V6.80237H20.0845V11.6844H18.3981V6.80237H17.4568V5.19233H18.3981V5.12741C18.3981 4.20985 18.6552 3.51303 19.1694 3.03695C19.6836 2.56086 20.4506 2.35311 21.4703 2.4137V4.02375ZM26.9684 5.19233H28.6548V11.6844H26.9684V10.9184C26.4629 11.5503 25.7526 11.8662 24.8375 11.8662C23.9659 11.8662 23.2164 11.5373 22.5889 10.8794C21.9701 10.2129 21.6607 9.39921 21.6607 8.43838C21.6607 7.47755 21.9701 6.6682 22.5889 6.01033C23.2164 5.34381 23.9659 5.01055 24.8375 5.01055C25.7526 5.01055 26.4629 5.3265 26.9684 5.9584V5.19233ZM23.857 9.76277C24.1969 10.1004 24.6283 10.2692 25.1512 10.2692C25.6741 10.2692 26.1055 10.1004 26.4454 9.76277C26.7941 9.41652 26.9684 8.97506 26.9684 8.43838C26.9684 7.9017 26.7941 7.46456 26.4454 7.12697C26.1055 6.78073 25.6741 6.60761 25.1512 6.60761C24.6283 6.60761 24.1969 6.78073 23.857 7.12697C23.5171 7.46456 23.3471 7.9017 23.3471 8.43838C23.3471 8.97506 23.5171 9.41652 23.857 9.76277ZM31.8704 6.30897C32.0273 5.89347 32.2844 5.58185 32.6417 5.37411C33.0078 5.16636 33.413 5.06248 33.8575 5.06248V6.93221C33.3433 6.87162 32.8814 6.97549 32.4718 7.24383C32.0709 7.51217 31.8704 7.95796 31.8704 8.58121V11.6844H30.184V5.19233H31.8704V6.30897ZM42.0732 5.01055C42.8227 5.01055 43.4197 5.25292 43.8644 5.73766C44.3176 6.22241 44.5442 6.87162 44.5442 7.6853V11.6844H42.8576V7.80215C42.8576 7.41263 42.7617 7.10966 42.57 6.89326C42.3782 6.67685 42.1081 6.56865 41.7595 6.56865C41.376 6.56865 41.0753 6.69417 40.8574 6.94519C40.6483 7.19622 40.5437 7.55978 40.5437 8.03587V11.6844H38.8573V7.80215C38.8573 7.41263 38.7614 7.10966 38.5696 6.89326C38.3779 6.67685 38.1077 6.56865 37.7591 6.56865C37.3844 6.56865 37.0837 6.69417 36.8571 6.94519C36.6392 7.19622 36.5303 7.55978 36.5303 8.03587V11.6844H34.8438V5.19233H36.5303V5.88049C36.9225 5.30053 37.5282 5.01055 38.3474 5.01055C39.1492 5.01055 39.7419 5.32217 40.1253 5.94541C40.5611 5.32217 41.2104 5.01055 42.0732 5.01055ZM50.9439 5.19233H52.6303V11.6844H50.9439V10.9184C50.4384 11.5503 49.7281 11.8662 48.813 11.8662C47.9415 11.8662 47.1919 11.5373 46.5644 10.8794C45.9456 10.2129 45.6363 9.39921 45.6363 8.43838C45.6363 7.47755 45.9456 6.6682 46.5644 6.01033C47.1919 5.34381 47.9415 5.01055 48.813 5.01055C49.7281 5.01055 50.4384 5.3265 50.9439 5.9584V5.19233ZM47.8325 9.76277C48.1724 10.1004 48.6038 10.2692 49.1267 10.2692C49.6497 10.2692 50.0811 10.1004 50.421 9.76277C50.7696 9.41652 50.9439 8.97506 50.9439 8.43838C50.9439 7.9017 50.7696 7.46456 50.421 7.12697C50.0811 6.78073 49.6497 6.60761 49.1267 6.60761C48.6038 6.60761 48.1724 6.78073 47.8325 7.12697C47.4926 7.46456 47.3227 7.9017 47.3227 8.43838C47.3227 8.97506 47.4926 9.41652 47.8325 9.76277ZM60.1865 11.6844H58.2256L55.8463 8.73702V11.6844H54.1598V2.59548H55.8463V8.04885L58.0948 5.19233H60.1081L57.4804 8.39943L60.1865 11.6844ZM66.1247 10.8794C65.4536 11.5373 64.6344 11.8662 63.667 11.8662C62.6996 11.8662 61.8803 11.5373 61.2092 10.8794C60.5469 10.2129 60.2157 9.39921 60.2157 8.43838C60.2157 7.47755 60.5469 6.6682 61.2092 6.01033C61.8803 5.34381 62.6996 5.01055 63.667 5.01055C64.6344 5.01055 65.4536 5.34381 66.1247 6.01033C66.7958 6.6682 67.1313 7.47755 67.1313 8.43838C67.1313 9.39921 66.7958 10.2129 66.1247 10.8794ZM62.3989 9.72382C62.7388 10.0614 63.1615 10.2302 63.667 10.2302C64.1725 10.2302 64.5951 10.0614 64.935 9.72382C65.2749 9.38623 65.4449 8.95775 65.4449 8.43838C65.4449 7.91901 65.2749 7.49053 64.935 7.15294C64.5951 6.81535 64.1725 6.64656 63.667 6.64656C63.1615 6.64656 62.7388 6.81535 62.3989 7.15294C62.0677 7.49053 61.9021 7.91901 61.9021 8.43838C61.9021 8.95775 62.0677 9.38623 62.3989 9.72382Z" fill="white"/>
<path d="M1.59653 3.17138C2.47827 3.17138 3.19306 2.46144 3.19306 1.58569C3.19306 0.709938 2.47827 0 1.59653 0C0.714792 0 0 0.709938 0 1.58569C0 2.46144 0.714792 3.17138 1.59653 3.17138Z" fill="white"/>
<path d="M11.8421 8.23139C12.7238 8.23139 13.4386 7.52146 13.4386 6.64567C13.4386 5.76993 12.7238 5.06 11.8421 5.06C10.9603 5.06 10.2455 5.76993 10.2455 6.64567C10.2455 7.52146 10.9603 8.23139 11.8421 8.23139Z" fill="#5F7AFF"/>
<path d="M11.8421 13.2853C12.7238 13.2853 13.4386 12.5754 13.4386 11.6996C13.4386 10.8238 12.7238 10.1139 11.8421 10.1139C10.9603 10.1139 10.2455 10.8238 10.2455 11.6996C10.2455 12.5754 10.9603 13.2853 11.8421 13.2853Z" fill="#5F7AFF"/>
<path d="M6.7193 13.2853C7.60103 13.2853 8.31582 12.5754 8.31582 11.6996C8.31582 10.8238 7.60103 10.1139 6.7193 10.1139C5.83757 10.1139 5.12274 10.8238 5.12274 11.6996C5.12274 12.5754 5.83757 13.2853 6.7193 13.2853Z" fill="#5F7AFF"/>
<path d="M1.59653 13.2853C2.47827 13.2853 3.19306 12.5754 3.19306 11.6996C3.19306 10.8238 2.47827 10.1139 1.59653 10.1139C0.714792 10.1139 0 10.8238 0 11.6996C0 12.5754 0.714792 13.2853 1.59653 13.2853Z" fill="white"/>
<path d="M6.73554 3.17138C6.3121 3.17138 5.90601 3.00431 5.6066 2.70694C5.30718 2.40957 5.13898 2.00624 5.13898 1.58569C5.13898 1.16514 5.30718 0.761814 5.6066 0.464437C5.90601 0.167064 6.3121 0 6.73554 0H11.8437C12.2671 0 12.6732 0.167064 12.9726 0.464437C13.272 0.761814 13.4402 1.16514 13.4402 1.58569C13.4402 2.00624 13.272 2.40957 12.9726 2.70694C12.6732 3.00431 12.2671 3.17138 11.8437 3.17138H6.73554Z" fill="white"/>
<path d="M1.59653 8.23139C1.17311 8.23139 0.767019 8.06433 0.467612 7.76695C0.168205 7.46957 0 7.06623 0 6.64567C0 6.22516 0.168205 5.82183 0.467612 5.52444C0.767019 5.22706 1.17311 5.06 1.59653 5.06H6.73434C7.15777 5.06 7.56382 5.22706 7.86323 5.52444C8.16265 5.82183 8.33085 6.22516 8.33085 6.64567C8.33085 7.06623 8.16265 7.46957 7.86323 7.76695C7.56382 8.06433 7.15777 8.23139 6.73434 8.23139H1.59653Z" fill="white"/>
</svg>
